<?xml version="1.0" encoding="UTF-8" standalone="no"?>
<!-- Created with Inkscape (http://www.inkscape.org/) -->

<svg
   xmlns:dc="http://purl.org/dc/elements/1.1/"
   xmlns:cc="http://creativecommons.org/ns#"
   xmlns:rdf="http://www.w3.org/1999/02/22-rdf-syntax-ns#"
   xmlns:svg="http://www.w3.org/2000/svg"
   xmlns="http://www.w3.org/2000/svg"
   version="1.1"
   width="107.99998"
   height="41.053612"
   id="svg3884">
  <defs
     id="defs3886" />
  <metadata
     id="metadata3890">
    <rdf:RDF>
      <cc:Work
         rdf:about="">
        <dc:format>image/svg+xml</dc:format>
        <dc:type
           rdf:resource="http://purl.org/dc/dcmitype/StillImage" />
        <dc:title></dc:title>
      </cc:Work>
    </rdf:RDF>
  </metadata>
  <g
     transform="translate(-100.82003,-441.16384)"
     id="layer1">
    <path
       d="m 181.86583,478.1811 c -0.50069,-0.0455 -1.25767,-0.0777 -1.76245,-0.23749 -0.98338,-0.31124 -1.42631,-0.78605 -1.66735,-1.52672 -0.25445,-0.7819 -0.39807,-0.92884 -0.63062,-1.4682 -0.11324,-0.10052 -0.39723,-0.60609 -0.46244,-0.74521 -0.14878,-0.31744 -0.31396,-0.72836 -0.4717,-1.28193 -0.61727,-2.16629 -0.98667,-3.44268 -1.30643,-4.99948 l -0.36265,-1.76555 -3.10305,-0.0411 c -1.70667,-0.0226 -3.51324,-0.0587 -4.0146,-0.0802 -1.54647,-0.0663 -3.23928,-0.34471 -4.40281,-0.724 -0.59728,-0.1947 -0.79821,-0.23062 -1.32216,-0.23637 l -0.61785,-0.007 -1.62315,0.80914 c -1.98743,0.99073 -3.77795,1.71333 -5.69238,2.29728 -2.08232,0.63516 -2.64115,0.84628 -3.0428,1.14952 -0.52499,0.39637 -0.48351,0.5777 0.35928,1.57065 0.57058,0.67225 2.38393,2.45272 2.75097,2.70109 0.73629,0.49827 1.29445,0.68122 2.39556,0.78523 1.02758,0.0971 1.48422,0.35918 1.55583,0.89308 0.0797,0.59437 -0.34366,1.29833 -0.91122,1.51508 -0.64945,0.24803 -3.31382,-0.0279 -4.1027,-0.42481 -0.70236,-0.35344 -1.46115,-0.98684 -2.36958,-1.97806 -0.47822,-0.5218 -0.9317,-1.03912 -1.00771,-1.1496 -0.076,-0.11048 -0.42144,-0.3914 -0.76759,-0.62426 -0.81907,-0.551 -1.18132,-0.91471 -1.44138,-1.4472 -0.2699,-0.55264 -0.30492,-0.91965 -0.17604,-1.84472 0.24107,-1.73028 0.3789,-1.99665 1.69276,-3.27135 0.55617,-0.53959 1.02882,-1.02865 1.05031,-1.08681 0.0813,-0.2198 -0.53316,-0.24198 -1.50543,-0.0543 -0.80192,0.15476 -1.46333,0.37398 -2.60847,0.86459 -1.62985,0.69828 -2.78511,1.02994 -4.00178,1.14885 -0.2113,0.0207 -1.23415,0.0805 -2.27302,0.13306 -3.25264,0.1645 -4.86298,0.36674 -6.11659,0.76818 -1.07582,0.34451 -1.05009,0.32055 -1.63325,1.52157 -0.27726,0.57101 -0.7215,1.45408 -0.98719,1.96238 -0.42652,0.81597 -0.48308,0.96437 -0.48308,1.26762 0,0.2923 0.0263,0.36783 0.17608,0.50715 0.17832,0.16577 0.56759,0.37862 0.97644,0.53388 0.36585,0.13895 0.64759,0.38502 0.77778,0.67933 0.21597,0.48824 0.0129,1.26743 -0.45973,1.76429 l -0.23419,0.24619 -0.9685,0 -0.9685,0 -0.62612,-0.42679 c -0.88808,-0.60538 -1.07369,-0.76499 -1.34117,-1.15335 l -0.23669,-0.34367 -0.0272,-0.87891 c -0.0205,-0.6642 -0.003,-0.97278 0.0733,-1.26311 0.0552,-0.21131 0.13171,-0.72994 0.16988,-1.15252 0.10276,-1.1376 0.23326,-1.88304 0.42204,-2.41071 0.44977,-1.25718 1.87898,-3.68112 2.35398,-3.99235 0.0812,-0.0532 0.77906,-0.21351 1.55079,-0.35623 2.18359,-0.40382 2.63145,-0.53523 3.17191,-0.93067 0.53378,-0.39055 0.9721,-1.06649 1.88868,-2.91251 0.62103,-1.25076 1.06529,-2.01665 1.50324,-2.59157 0.21688,-0.2847 0.47954,-0.84381 0.42298,-0.90037 -0.0111,-0.0111 -0.59487,0.21238 -1.29726,0.49664 -2.751,1.11333 -5.63974,1.92203 -8.06409,2.25752 -1.87162,0.259 -4.37791,0.28572 -6.31878,0.0674 -1.14559,-0.12887 -2.94763,-0.45438 -4.6234,-0.83514 -1.34882,-0.30647 -4.59102,-0.96964 -5.57718,-1.14078 -0.59591,-0.10342 -4.83139,-1.13475 -5.79765,-1.41172 -0.81253,-0.23291 -1.62444,-0.35963 -2.01216,-0.31406 -0.20243,0.0238 -0.4311,0.008 -0.57361,-0.0387 -0.26837,-0.0886 -0.42191,-0.32564 -0.30339,-0.46844 0.10249,-0.1235 1.28179,-0.73104 1.69491,-0.87318 0.881,-0.30311 3.26585,-0.33955 4.7509,-0.0726 1.08774,0.19553 3.77281,0.72804 5.51856,1.09444 2.16111,0.45359 5.61133,0.83062 7.60026,0.83053 1.94647,-6e-5 2.84646,-0.10623 5.7696,-0.6805 5.24028,-1.02947 6.48404,-1.53696 11.30104,-4.6111 5.58294,-3.56295 8.10839,-4.76702 11.78124,-5.61697 1.93445,-0.44766 2.39474,-0.50794 3.90575,-0.51142 1.56196,-0.004 1.95228,0.0418 4.64207,0.54007 5.43626,1.00702 6.55117,1.27714 8.54781,2.07091 1.33798,0.53194 1.92767,0.73039 2.84926,0.95891 1.68804,0.41857 3.4781,0.65609 5.6025,0.74339 3.38656,0.13915 4.13769,0.29814 5.44243,1.15197 0.56805,0.37174 0.39871,0.34757 3.39351,0.48435 1.14451,0.0523 2.16433,0.11292 2.26626,0.13479 0.17028,0.0365 0.18231,0.0273 0.14799,-0.11354 -0.1175,-0.48232 -0.37334,-2.5398 -0.38438,-3.0913 l -0.013,-0.6476 0.24918,-0.12166 c 0.22028,-0.10755 0.29426,-0.11328 0.63772,-0.0494 0.48875,0.0909 0.79652,0.30253 1.81464,1.24777 0.65576,0.60883 0.85276,0.75383 1.23112,0.90614 l 0.45045,0.18134 0.51336,-0.20287 c 0.28234,-0.11157 0.82323,-0.28079 1.20195,-0.37604 0.62121,-0.15623 0.79825,-0.17291 1.8091,-0.17042 1.18071,0.003 1.90752,0.11026 2.85707,0.42198 l 0.4116,0.13512 0.33454,-0.23242 c 0.184,-0.12783 0.76674,-0.57893 1.29497,-1.00244 0.94012,-0.75374 1.1539,-0.88315 1.34057,-0.81152 0.17249,0.0662 0.43459,1.04561 0.43973,1.64313 0.007,0.8587 -0.18808,1.48802 -0.71398,2.29895 -0.14628,0.22556 -0.26596,0.47264 -0.26596,0.54909 0,0.0764 0.0722,0.34562 0.16043,0.59818 0.24761,0.7087 0.31759,1.31806 0.2299,2.00183 -0.21134,1.64799 -1.40745,3.4745 -3.0268,4.62206 -0.59009,0.41817 -1.62462,1.00077 -2.0871,1.17535 -0.5084,0.19192 -0.8286,0.19074 -1.63857,-0.006 -0.72916,-0.17718 -1.55078,-0.29049 -2.10636,-0.29049 -0.27052,0 -0.52713,0.0598 -0.93886,0.21881 -1.14768,0.44324 -1.57613,0.70181 -2.36793,1.42908 -1.36776,1.25629 -1.99084,1.89541 -1.99084,2.04204 0,0.24189 0.56691,1.2826 1.05848,1.94311 0.92083,1.2373 1.61295,1.87254 3.84898,3.53265 2.16626,1.6083 2.40898,1.82455 4.82062,4.29504 1.01214,1.03684 1.06647,1.08145 1.69349,1.39033 0.3563,0.17552 1.02894,0.43303 1.49476,0.57225 0.95193,0.28449 1.61509,0.61108 2.07514,1.02194 0.26792,0.23928 0.31134,0.31163 0.31134,0.51877 0,0.29233 -0.20763,0.62164 -0.49937,0.79203 -0.64929,0.37921 -2.56115,0.33082 -4.02624,-0.40582 -0.70019,-0.35204 -2.07621,-1.58606 -2.85458,-2.14753 -0.86727,-0.62561 -1.07555,-0.8434 -2.60826,-1.69177 -1.64181,-0.90877 -2.24847,-1.32002 -3.3897,-2.29786 -0.54375,-0.4659 -1.3361,-1.11046 -1.76078,-1.43236 -0.42469,-0.3219 -1.17554,-0.92035 -1.66856,-1.32988 -1.10189,-0.91532 -2.01878,-1.60919 -2.40312,-1.81863 -0.37052,-0.2019 -1.36306,-0.43656 -1.98406,-0.46908 -0.37878,-0.0198 -0.76107,0.0303 -1.7928,0.23508 -0.72124,0.14316 -1.46982,0.28236 -1.66351,0.30935 l -0.35216,0.049 -0.08,0.76485 c -0.044,0.42066 -0.15541,1.03979 -0.24755,1.37581 -0.14353,0.5235 -0.16193,0.6889 -0.12853,1.15522 0.0678,0.94657 0.67183,3.68256 0.97362,4.41017 0.0529,0.12755 0.1886,0.3861 0.30157,0.57456 0.17969,0.29981 0.31664,0.5636 0.76479,0.7887 1.30766,0.6568 1.89161,0.50757 2.31382,1.15743 0.2928,0.45066 0.17162,1.01029 -0.0646,1.19612 -0.149,0.1172 -0.2481,0.13144 -0.84838,0.12194 -0.37382,-0.006 -0.79492,-0.0212 -0.93578,-0.034 z"
       id="path3923"
       style="fill:#ffffff;fill-opacity:1" />
  </g>
</svg>
